<svg width="32" height="32" viewBox="0 0 32 32" fill="none" xmlns="http://www.w3.org/2000/svg">
<g clip-path="url(#clip0_12465_998)">
<rect width="32" height="31.2558" transform="translate(0 0.744141)" fill="white"/>
<path d="M11.7071 21.0191L14.5113 18.1276L17.701 21.0191H23.1691L14.4762 12.6544L5.85352 21.0191H11.7071Z" fill="#2D383F"/>
<path d="M19.7342 7.59426L15.5981 11.725L18.3321 14.4788L19.7342 13.1019L27.4105 20.606C25.6579 25.1843 21.1713 28.4544 15.8785 28.4544C9.0784 28.4544 3.57528 23.0501 3.57528 16.372C3.61033 9.69402 9.11345 4.28968 15.9135 4.28968C21.9424 4.28968 26.9898 8.59255 28.0064 14.2034L31.7218 18.0587C31.7919 17.508 31.827 16.9228 31.827 16.372C31.827 12.2069 30.1796 8.28275 27.1651 5.32236C24.1507 2.36201 20.1548 0.744141 15.9135 0.744141C11.6372 0.744141 7.67635 2.36201 4.66189 5.32236C1.64743 8.28275 0 12.1725 0 16.372C0 20.5716 1.64743 24.4613 4.66189 27.4217C7.67635 30.3821 11.6723 32 15.9135 32C20.1548 32 24.1507 30.3821 27.1651 27.4217C29.0229 25.5973 30.3548 23.4287 31.0909 21.0535C31.2311 20.6405 31.3363 20.193 31.4414 19.7799L28.2167 16.4409L19.7342 7.59426Z" fill="#2D383F"/>
</g>
<defs>
<clipPath id="clip0_12465_998">
<rect width="32" height="31.2558" fill="white" transform="translate(0 0.744141)"/>
</clipPath>
</defs>
</svg>
